<svg xmlns="http://www.w3.org/2000/svg" viewBox="0 0 875.5 512.6">
  <path d="M281.9 428.3c-2.3 2.1-1.5 4.1-.3 6.2 3.1 5.3 7 9.9 10.6 14.8 2.4 3.3 6.1 5.3 10.2 5.6.7.1 1.4.1 2.1.1 3.7-.3 5.6-2.3 5.8-6 0-1.3-.1-2.6-.4-3.8l-.9-5.7c-.3-1.4.3-2.8 1.5-3.5 1.2-.8 2.8-.8 4 .1 1.5 1.1 3 2.2 4.4 3.3 1.6 1.3 3.5 2.3 5.4 3 2.2.8 4.6.8 6.8 0s4.2-2 6-3.5c1.4-1.2 2.3-3 2.3-4.8.1-2-.2-4-1-5.9-.8-2.2-2.5-4-4.8-4.7-1-.3-2-.7-2.9-1-1.7-.6-3.7-.6-5.4 0-2.2.8-4.5 1.1-6.8 1-1.5 0-3 .1-4.5.2-.3 0-.6.1-1 .1-.8 0-1.7-.1-1.9-1.1s.7-1.5 1.6-1.8c.9-.2 1.7-.3 2.6-.3 1.8-.1 3.5 0 5.3-.1 4.7-.2 7.4-3.5 6.8-8.2-.3-2.5-1.9-3.8-4.1-2.3-1.3.8-2.9 1-4.4.5-.9-.2-1.7-.5-2.5-.7-1.4-.4-2.9-.2-4.1.6-2.3 1.5-5 2.6-7.2 4.4-1.3 1.1-3 1-4.6.9-6-.5-11.6-3.1-15.7-7.3-10.1-9.9-17.1-22.6-20-36.5-2.4-10.3-3.4-20.9-3-31.4 0-.9.1-1.8.4-2.6.1-.4.5-.7.9-.7s.8.3.8.8c.1.8.2 1.6.2 2.4 0 3.2-.1 6.4 0 9.6.3 12.9 3.3 25.6 8.8 37.3 3.3 7.1 7.9 13.4 13.5 18.8 3.2 3.1 7.1 5.3 11.4 6.4 1.5.4 3 .4 4.5.1 2.5-.6 4.9-1.7 7-3.1 1.4-.9 1.5-1.9.3-3.2-.7-.7-1.5-1.4-2.4-2-5.9-4.1-10.2-9.5-14.1-15.5-4.4-6.8-6.9-14.2-9.3-21.8-2.5-8.1-4.4-16.4-5.7-24.8-.2-.9-.3-1.7-.2-2.6.1-.5.3-1 .9-1 .4 0 .8.3.9.7.2.4.3.9.4 1.4.4 3.3 1.2 6.6 2.2 9.8.4 1.3.8 2.6 1 4 .9 6.4 3.1 12.4 5.6 18.3.4 1 .9 2 1.3 3.1 2.2 6.6 6.2 12.2 9.9 18 .4.6.9 1.1 1.4 1.6 3.2 3.1 6.7 5.9 10.5 8.4 2.2 1.5 4.8 2.3 7.5 2.2h5.3c3.9.2 5.3 1.7 5.4 5.5 0 1.8-.2 3.5-.5 5.2-.4 1.9.1 2.6 2 3.2.7.2 1.4.3 2.1.5 3.4.8 6.2 3.2 7.5 6.4 1.2 2.7 1.6 5.8 1 8.7-.3 1.5-1.1 2.9-2.3 3.8-2.2 1.8-4.3 3.8-7 5-4.7 2.2-9 1.6-13.2-1.1-1.2-.8-2.3-1.8-3.6-2.4-2.1-1.1-3.2-.4-3.3 1.9 0 .9.1 1.8.2 2.6.2 1.3.2 2.7.1 4.1-.5 4.8-4.6 8.5-9.5 8.3-3.2-.1-6.5-.6-9.1-2.5-3.7-2.7-6.9-1.3-10.2.7-.4.3-.8.6-1.1.9-1.4 1.4-3.3 2.1-5.3 1.7-1.7-.3-3.5-.1-5.2.5-3.4 1.1-7 1.7-10.6 1.7-3.9.1-7.8.6-11.7.5-4.4 0-8.8-.9-12.9-2.5-1.1-.5-2.3-.8-3.4-1.2-2.1-.5-3.6-2.4-3.8-4.5-.6-5.2-2-10.2-2.7-15.4-1.7-11.9-4.9-23.5-7.2-35.2-1.6-8.2-3.6-16.4-5.1-24.7-1.7-8.3-2.7-16.7-3.1-25.2-.3-8.5.5-17 3.8-25 1.4-3.6 3.6-6.8 6.3-9.5 2.5-2.4 2.2-3.5-1.1-4.5-2.5-.9-5.2-1.2-7.8-.9-2.1.3-4.3.5-6.4.7-3.3.2-6.2 2-7.8 4.9-3.2 5.1-5 11-5.3 17-.3 8.2-.5 16.5.8 24.7.7 4.6 1.9 9.1 3 13.6 3.4 13.7 6.8 27.3 9 41.3 1.2 8.2 3 16.4 5.3 24.4.8 3.2 1.4 6.4 1.6 9.7.1 1.4.3 2.7 1.6 3.6.6.5 1.1 1 .5 1.8-.5.8-1.5 1.1-2.3.8-.8-.3-1.4-.9-1.5-1.7-.4-1.2-.7-2.5-.9-3.7-1.4-9.9-3.6-19.7-5.6-29.5-1-5.2-1.9-10.4-2.9-15.6-1.7-9.5-4-18.8-6.3-28.1-1.6-6.5-3.3-13-4-19.8-.4-4.4-.1-8.8-.2-13.2-.1-4.8.2-9.6 1-14.3 1-5.4 3.2-10.4 6.5-14.8 1.2-1.8 3.3-2.9 5.5-3 1.7-.1 3.3-.3 5-.5 2.4-.4 2.9-1.6 1.3-3.4-2.1-2.3-4.3-4.5-6.1-7-3-4-5.3-8.6-6.9-13.4-1.8-5.2-3-10.6-3.6-16.1-.2-1.3-.2-2.6-.1-3.8.4-3.4.3-6.7.4-10.1.2-6.7 1-13.4 2.4-20 2.1-8.5 4.2-16.9 6.9-25.2 2.1-6.5 4-13 6.8-19.2 1.9-4.2 4.3-8.2 6.4-12.4 2.8-5.5 5.1-11.2 7.4-16.9.8-1.9 1.5-3.9.5-6 .4-.1.6-.3.8-.3 3.1.3 3.5 1 1.9 3.8-1.1 2-2.1 3.9-3.2 5.9-1.2 2.5-1.9 5.1-2.1 7.8-.3 2.5.4 5 1.9 7 1 1.3 1.9 2.8 2.5 4.4.3.8.7 1.5 1 2.2 1.7 3.8 4.2 7.2 5.9 11 .3.7.7 1.3 1.6 1.3s1.2-.8 1.4-1.5c1.3-4.4 3.6-8.3 5.8-12.4 1.4-2.9 3.4-5.4 6-7.4.9-.8 2.2-1.1 3.3-.8.8.3 1.6.4 2.4.2 4.6-.8 9.1.4 13.6.9 2.5.4 4.8 1.6 6.4 3.5 4.8 5 7.8 10.8 7.9 17.8-.1 4.2-.7 8.5-1.8 12.6-.5 2.5-1.3 5-2.4 7.3-.7 1.5-1.7 2.9-2.9 4.1-1.3 1.2-2.6 2.6-3.7 4-.6.9-1.5 1.7-2.6 2.1-3.4 1.4-6.8 2.9-10.5 3.4-2.5.4-5 .2-7.4-.5-.4-.1-.8-.3-1.1-.4-1.8-.4-2.5.3-2 2.1.5 2.4 1.2 4.8 2 7.1 4.2 11.2 6.8 22.8 10 34.3.9 3.3 2.1 6.6 2.5 10 .8 7.3-.7 14.2-5.1 20.2-.6.9-1.3 1.6-2.2 2.2-5.8 3.3-11.8 5.9-18.7 5.5-6.1-.4-11.3 1.8-15 6.9-2.9 4-4.4 8.5-5.6 13.2-1.7 7.5-2.1 15.3-1.2 22.9 1 10.2 3.5 20.1 5.6 30.2.3 1.2.5 2.3.7 3.5.6 4.5 1.5 9 2.7 13.4 1.3 5.3 2.7 10.5 4 15.8 1 4.1 1.6 8.3 2 12.5.3 3.5.9 7 1.8 10.4.9 3.1 1.7 6.3 2.2 9.6.3 1.9 1.3 2.8 3.2 3.3 6.9 1.7 14 2.5 21.1 2.2 4-.2 8-.6 11.9-1.2.3 0 .6-.1.9-.2 1.6-.5 2.1-1.3 1.4-2.9-.8-2-1.8-3.9-3-5.7-3.3-4.8-5.3-10.3-5.9-16-.5-4.8-1.8-9.5-3.7-13.8-.7-1.4-.9-2.9-.5-4.4.3-1.3 0-2.8-.9-3.8-1.4-2-2.9-3.8-4.5-5.6-2.3-2.5-4.3-5.2-5.9-8.2-6.7-12.3-10.8-25.9-12.1-39.9-.7-6.8-.5-13.6.5-20.3.8-4.4 2.3-8.5 3.4-12.7.2-.9.6-2.2 1.7-1.9s.6 1.6.4 2.5c-1.1 4.3-2.3 8.7-3.3 13-.9 3.6-1.2 7.4-.9 11.2.3 2.6.3 5.3.5 7.9.2 3 .7 5.9 1.5 8.7 1.2 4 1.5 8.2 2.8 12.2 3.3 10.3 7.7 20 15 28.1 1.1 1.2 2.1 2.4 3 3.7 3.1 4.4 7.5 7.6 11.3 11.3.9.8 2 1.4 3.1 1.8.5.2 1.1.4 1.6.6.6.3 1.5.6 1.4 1.4-.2 1.1-1.2.9-2 .8-1.7-.2-3.3-.8-4.6-1.9-2.4-1.8-4.8-3.7-7-5.8-.6-.5-1.2-1.5-2-.9s-.2 1.5.1 2.2c2 4.5 3.1 9.3 3.4 14.2.3 3.2 1.3 6.3 2.9 9.1 1.3 2.4 2.6 4.8 3.8 7.2.9 1.6 1.9 3.1 3.1 4.5 1 1.3 2.7 1.9 4.3 1.6 2.5-.4 5-1.1 7.4-2.1 1.7-.7 2.1-1.8 1.1-3.5-1.3-2.5-2.8-4.8-4.6-7-2.4-2.6-4-5.8-5.9-8.7-.8-1-.7-2.4.3-3.3 1.1-1.2 1.7-2.8 3.7-2.7z"/>
  <path d="M298.9 284.6c3.1 1.8 6.3 3.5 9.4 5.3 1.3.8 2.8 1.3 4.2 1.5 3 .4 6.1.5 9.1.2 2.2-.1 4.3-.9 6-2.2 2-1.5 2.2-3.2.5-5.1-2.1-2.6-5.4-3.9-8.7-3.4-7.4 1.2-14.9-.5-21.1-4.5-2.9-1.9-5.8-3.6-8.2-6.1-1.5-1.5-2.8-3.3-3.8-5.2-.7-1.5-1.8-2.9-3-4-1.7-1.6-2.8-1.5-4 .5-.5 1.1-1.2 2.1-2 3-.8.8-1.8 1.9-2.9 1.1s-.1-1.9.3-2.8c.8-1.3 1.6-2.6 2.2-4 .2-.5.6-1 1.1-1.2 1.4-.8 2.5-2 3.1-3.5.3-.7.8-1.4 1.5-1.9 1-.7 1.8-.4 2.1.8.7 2.6 1.2 2.9 3.8 2.4 1.8-.4 3.5-1.1 5.1-2l18.3-9.4c2.6-1.3 5.2-2.4 8-3.3 2.3-.7 4.4-1.8 6.4-3.3 2.1-1.6 4.7-2.5 7.3-2.8 2.1-.3 4.1-.9 6-1.6 1.6-.5 3.3-1.1 4.6.5 1.4 1.6 1.6 3.9.5 5.6-1.5 2.2-1.6 4.4-1.4 6.8.1 2.2-.1 4.5-.4 6.7-.3 3.3-.5 6.5-1 9.8s-1.4 6.4-4.3 8.5c-.4.4-.8.8-1 1.3-.5.9-.2 2.1.7 2.6.2.1.5.2.8.2.5.1 1 .1 1.4.1 8.6 0 17-2.5 24.4-7 3.7-2.2 7.5-4.3 10.5-7.5 2.1-2.1 3.7-4.6 5-7.3 2.1-4.8 4.5-9.4 7.2-13.8 1.3-2 2.2-4.3 2.8-6.6.3-1.2.5-2.4.5-3.6 0-3.4-.7-4.2-4-4.7-.8-.1-1.6-.3-2.3-.5-3.3-1-6.4-2.4-9.4-4.2-4-2.3-6.3-6.3-8.1-10.5-1.2-2.6-1.7-5.5-1.6-8.4.1-2.1.1-4.2 0-6.2s-1-2.7-3-2.1c-2.4.6-4.7 1.7-6.7 3.1-2.3 1.6-4.7 3-7.3 3.9-1.1.5-2.1 1.1-3 1.9-4.3 3.4-9.2 5.9-14.4 7.6-13.2 4.4-24.7-3.6-28.3-14.9-1.3-4-2-8.3-1.9-12.5.1-5 0-10.1 1.3-15 1.3-5 3.5-9.7 6.6-13.8 2-2.7 3.9-5.5 6.5-7.7.6-.5 1.1-1.2 1.4-1.9.7-1.6 1.9-2.8 3.5-3.4 4.8-2.3 10.4-2 15 .7 7.6 4.2 13.9 10.4 18.2 18l2.5 4.4c2.9 5.2 3.2 10.7 1.9 16.3-1.1 4.8-2.9 9.3-5.3 13.6-.5.9-1.6 2.1-.7 3 1.1 1.1 2-.4 2.8-.9 2.2-1.3 4.5-2.4 6.9-3.3 3.1-1.2 5.5-3.6 6.7-6.7 3.7-8.6 10-15.8 18-20.6 1-.6 2-1.1 3-1.5 2.2-1.1 4.7-1.2 7-.4 6.1 2.1 11.2 5.4 14.1 11.4.3.7.6 1.3 1.1 1.9 2.6 3.6 3.2 7.6 3.2 11.8 0 2.6.1 5.1.4 7.7.7 6.7-1.3 12.8-4.7 18.5-1.6 2.6-3.4 5-5.5 7.3-2.1 2.4-5 3.8-8.2 4-3.3.2-3.6.5-4.2 3.7-.9 4.3-2.4 8.5-4.4 12.4-1.7 3.4-3.1 7-4.7 10.5-1.5 3.5-3.5 6.8-5.9 9.9-2.2 2.8-5.1 5.1-8.3 6.8-3.3 1.8-6.6 3.5-10 5.2-2.4 1.3-5 2.1-7.7 2.5-2.9.4-5.7.7-8.5 1.3-2.3.5-4.6.5-6.9 0-1.9-.4-3.9-.2-5.6.5-2 .8-2.2 1.9-.7 3.4.1.1.2.2.4.3 7.4 5.4 13.4 12.4 19.5 19.1 9.8 10.8 19 22 26 35 3.2 6 6.8 11.8 10.9 17.2 1.2 1.7 2.1 3.6 2.6 5.6.4 2 1.1 4 2 5.9.9 1.7.4 2.4-1.6 2.6-2.6.2-2.7.3-2.3 2.9.6 3.6.7 7.2 1.1 10.7.4 3.1.7 3.4 3.7 3.4 3.1-.1 6.1.4 8.9 1.5 6.7 2.7 13.7 3.8 20.8 4.6 6.6.7 13.2 1.3 19.8 1.9 3.8.4 7.7-.1 11.2-1.6 3.7-1.5 7.7-2.3 11.7-2.2 9.2-.3 18.1 1.3 27.1 2.8 8.5 1.4 16.7 3.6 25 5.5 12.3 3.1 25 4.5 37.6 4.3 2.9-.1 5.7-.6 8.6-.5 1.8.1 3.7 0 5.5.3 2.7.4 5.4-.2 8.1-.6 10-1.6 20.1-3 30.2-3.9 5-.5 10.1-.7 15.1-.6 1.9 0 3.8.3 5.7.8.7.2 1.4.5 2 .9.5.2.7.7.6 1.2-.1.6-.6.7-1.1.7h-1c-9.8-.5-19.7-.2-29.4 1-7.3.9-14.5 2.2-21.8 3.3-2.5.3-4.9.5-7.4.4-5-.1-9.9 0-14.9.3-7.4.5-14.9.1-22.2-1.1-7.5-1.1-15-2.7-22.3-4.6-10.9-3.1-22-5.2-33.2-6.4-5.6-.5-11.3-1-17-.2-2.2.3-4.4.9-6.5 1.7-3.9 1.7-8.2 2.2-12.4 1.6-8.5-1.2-17-1.7-25.4-3.3-5.3-1-10.6-2.4-15.8-4.1-2.7-.9-5.6-1.4-8.5-1.4-1.8 0-2.5.4-2.7 2.1-.6 4.6-2.4 8.9-4 13.3-1 2.6-1.7 5.3-2.2 8.1 0 .2-.1.5-.1.7-.2.5-.2 1.2-1 1.2-.9-.1-.8-.9-.8-1.5s0-1.1.1-1.7c.7-3.6 1.4-7.2 3.1-10.5.8-1.5 1.4-3.1 1.7-4.8.9-5 1.6-10.1.9-15.2-.1-1.1-.1-2.2-.2-3.4 0-.7-.1-1.4-.4-2.1-.4-.8-1.1-.9-1.7-.2-.5.8-.8 1.7-.9 2.7-1 5-2 10-3 15.1-.4 2-.9 4.1-1.5 6.1-.7 2.2-.8 4.6-.4 6.9.3 1.9.3 3.8.1 5.7-.1.7-.3 1.4-.5 2.1-.1.4-.4.8-.8.8-.6 0-.8-.5-.9-1-.1-.4-.1-.8-.1-1.2 0-2.5-.1-5-.4-7.4-.2-2 0-4 .6-5.9 2.6-9.1 4.6-18.3 6-27.6.4-2.1 1.1-3.6 3.5-3.8 1.7-.1 2.1-.8 1.7-2.5-.4-2.2-1.2-4.3-2.4-6.3-5.5-8-10-16.6-15.1-24.8-3.5-5.6-7-11.3-11.4-16.3s-8.8-10.2-13.1-15.3l-.3-.3c-3.2-2.4-6-5.3-8.3-8.6-1.5-2-3.1-2.2-4.9-.6-2.7 2.5-5.9 3.4-9.4 3.9-8.7 1.6-17.9-2.4-22.3-9.6zM688.1 191.8c-.6-.9-.2-1.7 0-2.4.5-1.6 1.3-3.1 2.4-4.4 4.4-5.7 7.4-12.4 8.8-19.5.8-3.9.1-7.8-1-11.6-.7-2.4-1.4-4.8-2.2-7.1-1.2-3.8-1.6-7.6 0-11.5.8-2.2 1.2-4.5 1.2-6.8.5-5.3 1.5-10.6 2.7-15.8.2-.9.3-1.7.3-2.6 0-.9-.8-1.2-1.5-.6-.7.7-1.3 1.6-1.7 2.6-3 7-4.8 14.5-5.3 22.1-.5 7.6-1.1 15.1-1 22.8-.1 2-.5 4-1.2 5.9-1.1 3.9-2.2 7.7-3.2 11.6-1.4 5.5-4.5 10.4-8.8 14-2.1 1.8-4.1 3.5-6.2 5.3-.1.1-.2.2-.4.3-.6.4-1.3 1.1-1.9.5s0-1.3.3-1.9c.7-1 1.6-1.8 2.5-2.5 2.3-1.7 4.4-3.7 6.3-5.9 2.8-3.5 4.8-7.6 5.8-12 .7-2.9 1.6-5.7 2.7-8.5 1.2-3.2 1.8-6.5 1.7-9.9-.2-8.9.3-17.8 1.5-26.6 1-7.2 3.4-14.1 7.1-20.3 2.6-4.5 5.5-8.8 7.4-13.7.7-1.4 1.6-2.8 2.5-4.1 1.5-2.7 2.7-5.6 3.7-8.6 1.1-3.2 2.6-6.4 4.3-9.4 1.1-1.9 1.8-3.9 2.2-6.1.8-3.8 1.3-7.6 1.8-11.4.1-1.1.6-2.5-.6-3s-1.8.9-2.5 1.8c-3.8 5.2-6.1 11-8.2 17-2 5.4-4.4 10.6-7.4 15.6-4.4 7.4-7.3 15.5-8.7 24-.6 3.4-1.4 6.7-2.4 10-2.2 7.6-4.5 15.2-6.3 22.9-1.7 6.8-4.7 13.3-8.7 19.1-2.2 3.2-4.1 6.5-6.2 9.7-2.7 4.3-6 8.1-9.7 11.5-6.8 5.9-13.2 12.3-19.4 18.9-3 3.3-6.2 6.5-9.5 9.5-2.4 2-4.5 4.4-6.3 6.9-.5-.9-.4-1.9 0-2.8.9-2.2 2.4-4 4.2-5.4 3.8-3.3 7.3-6.9 10.7-10.6 3.2-3.6 6.6-6.9 10.2-10.1 8.4-7.4 16.5-15.2 21.9-25.2 1.1-2 2.3-3.8 3.6-5.7 4.1-6.2 6.8-13.1 8.2-20.4.9-5.4 2.4-10.8 4.3-15.9 1.4-3.6 2.4-7.3 2.9-11.1 1.4-10.3 5.4-19.5 10.5-28.4 2.1-3.8 4-7.7 5.5-11.7 2.9-7.4 5.8-14.8 10.5-21.2 1-1.3 2-2.7 3.1-4s2-.9 2.5.6c.2.9.3 1.7.1 2.6-.7 7.4-2.6 14.7-4.3 21.9-.9 3.9-2.9 7.4-4.5 11.1-1.4 3.2-2.6 6.6-3.4 10-1 4.2-1 8.6.2 12.8 1.5 5 1.3 10.2-.5 15.1-2.6 7.1-2 14.2.2 21.2 1.4 4.5 2.9 9 4.7 13.4 1.5 3.6 2.7 7.2 3.6 10.9 2.3 9.1 7.3 16.6 13.7 23.3 5.5 5.8 12.1 10.2 19 14.1 3 1.6 6.4 2.5 9.9 2.6 2.7.1 5.4-.6 7.8-2.1 8.2-5.3 16.9-5.9 26-2.8 3.6 1.2 7 2.8 10.4 4.4 3.8 1.7 6.4.9 8.5-2.7s3.1-7.4 4.5-11.1c3.8-10.3 7-20.8 9.7-31.4 1.7-6.9 5.7-12.3 11-16.8 4.8-3.9 7.6-9.7 7.6-15.9 0-7.6 1.3-15 2.7-22.3.2-.9.4-1.7.7-2.5.1-.6.7-.9 1.3-.9.5.1.9.5 1 1 .2.8.4 1.5.5 2.3.4 4.5 1 8.9 1.9 13.3 1 5.7.9 11.5-.1 17.2-.5 2.8-1 5.5-1.5 8.3-.3 1.8-.8 3.6-1.5 5.3-3.1 7.5-3.7 15.9-1.7 23.8 1.3 5.5 1.6 11.1.8 16.7-.5 3.5.5 7.1 2.7 9.9 2.2 2.8 4.5 5.6 6.5 8.6 1.5 2.1 2.4 4.5 2.9 7 .4 2.1.9 4.2 1.2 6.4.9 5.8 3.2 11.3 6.8 16 1.2 1.6 2.5 3.1 3.7 4.7.3.4.6.7.9 1.1.6.8 1.1 1.7.2 2.6s-1.8.3-2.6-.2-1.5-1.2-2.1-1.9c-5.4-6.9-9.2-14.6-10.4-23.4-.9-6.3-3.7-12.2-8-16.9-3.9-4.1-5.6-9.7-4.6-15.3.5-3.6.4-7.2-.3-10.8-.4-2.4-.7-4.7-1.2-7.1-1.1-5.4-.8-10.9.8-16.1 2.6-9.2 4.5-18.5 5.6-28 .4-3.8-.3-7.5-.9-11.2-.1-.5-.2-1-.8-1.1s-1 .4-1.2 1c-.5 2-.8 4.1-.8 6.2-.1 2.2-.1 4.3 0 6.5.1 4.5-1.4 8.7-3.3 12.7-.6 1.1-1.4 2.1-2.4 3l-6.8 6.8c-1.9 1.9-3.3 4.1-4.1 6.7-1.7 4.7-3.1 9.6-4.3 14.5-1.3 6-3.7 11.6-5.9 17.2-1.1 2.7-1.9 5.5-2.4 8.3-.8 4.6-3.3 8.2-6.4 11.6-1.5 1.8-3.9 2.4-6.1 1.7-3-.8-6-1.9-8.7-3.4-5.7-3.4-11.8-4.3-18.2-3.8-2.2.1-4.1 1.2-6.1 2.1-1.7.8-3.3 1.6-5 2.4-5.1 2.6-11 2.7-16.2.4-6.9-3-13.3-7.1-18.9-12.1-4.5-4-8.3-8.6-12.1-13.3-1.9-2.5-3.4-5.3-4.4-8.2-1.8-5.2-3.2-10.6-4.8-15.9-1.6-5.5-3.5-10.8-5.4-16.2-2.3-6.1-2.5-12.8-.7-19.1.7-2.5 1.3-5.1 2-7.7.8-2.5.7-5.3-.4-7.7-.7-1.4-.7-3.1-1.8-4.4-1 .7-1 1.7-1.3 2.6-2 6.8-2.6 13.8-3.6 20.8-.4 4-1.1 7.9-2 11.8-1 4.2-.7 8.5 1 12.5.8 2 1.5 4.1 2 6.1 1.4 5.4 1 11.1-1.1 16.2-3.1 6.8-6.8 13.2-11.1 19.3-.2.3-.4.5-.6.7-.3-.5-.5-.4-.6-.3zM147.8 456.9c.4-3.9-.4-7.7-2.4-11.1-1-1.9-1.6-4-1.9-6.2-1-6.2-1.7-12.4-2.1-18.6-.4-6.9-.7-13.9-2.8-20.6-.5-1.7-.8-3.4-.9-5.2-.8-7.2-2.7-14.2-5.8-20.7-3.5-7.8-6.7-15.8-9.7-23.8-2.3-5.9-3.2-12.3-2.5-18.6.5-4.2.5-8.5 1.1-12.7.2-1.3.3-2.5.6-3.8 1.4-6.6 2.3-13.3 2.7-20 .4-7.4-.5-14.8-2.8-21.8-2.4-7.4-4.5-14.8-6.7-22.3-1.8-6.2-2.9-12.5-3.4-18.9-.1-1.7-.4-3.4-.7-5-1.8-8.5-3.2-17.1-4-25.8-.4-3.9-1.3-7.7-2.1-11.6-.2-.9-.5-1.8-1-2.7-5.7-10.8-11.2-21.8-16-33-2-4.8-3.3-9.9-3.8-15.1-.7-5.8-.9-11.6-1.1-17.5-.1-1.9 0-3.8.3-5.7.1-.7.1-1.4.1-2.2-.1-.6 0-1.4-.8-1.5-.7-.1-.9.6-1.1 1.1-1.1 2.6-2.1 5.2-2.8 7.9-3.6 14-6.5 28.2-8.7 42.5-.8 5.4-1.5 10.8-1.9 16.2 0 .8-.2 1.6-.4 2.4-1.6 4.8-1.9 9.9-2.4 14.9-1.1 10.5-3.1 20.9-4.6 31.3-.2 1.6-.7 3.1-1 4.7-.4 1.3-.5 2.6-.6 4 0 7.9-.8 15.8-1.4 23.7-.1 1-.1 2.1-.1 3.1 0 16.6-1.4 33.2-4.3 49.5-2.2 12.6-4 25.3-5.4 38-.3 2.9-1 5.7-2 8.4-1.7 4.7-3.1 9.4-4.2 14.3-.8 3.6-2 7.1-3.7 10.4-1.7 3.7-2.9 7.7-3.6 11.7-1.8 9-4.5 17.7-7.1 26.4-.9 3.4-2.5 6.6-4.5 9.5-.8 1.2-1.5 2.5-2 3.8-2.9 7.8-7 15.1-10.8 22.5-2.2 4.3-4.4 8.5-6.2 13-.3.7-.6 1.3-1 1.9-.2.3-.5.4-.8.3-.3-.2-.4-.5-.3-.9.2-.5.4-1.1.7-1.6 3.8-8.6 7.7-17.2 12-25.6 2.4-4.8 4.1-9.9 6.7-14.6 4.6-8.3 6.6-17.3 8.4-26.4.9-4.6 2-9.2 3.5-13.7 3.8-11.5 7.8-23 10.7-34.9 1.6-6.9 2.7-13.8 3.2-20.9.1-1.7.4-3.3.7-5 2.7-14.2 4.5-28.6 6.3-43 .4-3 .5-6.1.5-9.1 0-5.7.5-11.3.6-17 .1-4.6.5-9.3.8-13.9.2-3.5.1-7 .5-10.5 1.1-9.4 2.2-18.7 4.5-27.9 1.1-4.3 1.1-8.7 1.8-13.1.3-2.1.6-4.3.9-6.4.8-5.3 2-10.5 2.2-15.9.3-4.2 1-8.4 2.1-12.5 1-4.3 1.8-8.6 2.3-13 1.2-9.1 3.7-17.9 6.2-26.6 1.8-5.5 3.3-11.1 4.5-16.7.3-1.7.9-3.4 1.6-5 2.2-5.1 3.5-10.5 3.8-16 .1-2.2.3-4.5.6-6.7 0-1 .4-2.1 1-2.9.5-.6 1.2-.5 1.5.2.2.6.2 1.3.2 1.9.1 5-.5 9.9-1.9 14.7-.9 3.3-1.4 6.7-1.5 10.2-.1 3.1-.3 6.2-.5 9.3-.9 10.1-.2 20.1.7 30.2.5 5.4 2.7 10 4.8 14.7.1.1.1.3.2.4 3.6 9.5 8.7 18.2 13.5 27 2.1 3.8 3.5 7.9 4 12.2 1.3 10.6 3.2 21.2 4.9 31.8.5 3.2.8 6.5 1.3 9.8.6 4.3 1.6 8.5 2.9 12.6 1.9 5.7 3 11.6 4.8 17.4.4 1.6.9 3.2 1.6 4.8 1.7 4.2 2.6 8.6 2.8 13.1.1 2 .2 4 .6 6 .7 3.9.1 7.6-.4 11.5-.9 7-2 13.9-3.1 20.9-.8 4.8-1 9.7-.8 14.6.1 1.5.3 3 .7 4.5 2.2 8.2 5.1 16.2 8.6 23.9 3.3 7.1 6.4 14.3 8.2 22 .4 1.6.7 3.1.9 4.7.5 4.7 1.6 9.3 2.4 14 .7 5.2 1.2 10.5 1.4 15.8.5 8.6 1.4 17.1 5.1 25 .8 2 1.3 4.1 1.4 6.3.1.6.1 1.3 0 1.9-.4 2.3-.4 4.6-.1 6.9.1.9.3 2-.9 2.5-.8.3-1.7-.5-2.3-1.7-.3-.8-.4-1.5-.4-2.4-.2-1.3-.1-2.7-.1-4zM212.8 147.6c-.1-2.2.7-4.3 2.1-5.9 1.8-2 2.1-4 .7-6.3-.6-1.1-1-2.2-1.2-3.4-1.2-5.6-2.3-11.3-3.5-16.9-.4-1.8-.3-3.7.2-5.4.5-1.8.8-3.6 1.2-5.4 1.6-7.2 5.7-12.3 12.8-15 4.4-1.8 9.2-2.9 13.9-3.2 3.2-.1 6.4.2 9.5.7 6.6 1.1 12.7 3.9 18.5 7.1 4 2.2 6.6 6 9.6 9.3.3.3.5.7.7 1 1.3 1.5 2.2 1.4 2.8-.6.7-2.3 1.9-4.4 3.5-6.2 1.6-1.9 4.4-2.2 6.3-.6 1 .8 1.6 2 1.6 3.2.4 2.5.5 4.9.4 7.4-.3 2.6 1.4 5 3.9 5.6 3.5 1.3 6.9 3.1 9.9 5.4 3.9 3 7 6.9 9 11.4 1 2 1.7 4.1 2.9 6.1.4.7 1 1.7-.1 2.3-.9.4-1.5-.4-1.9-1.1-.5-.8-.9-1.7-1.2-2.6-2.3-6-6.3-11.2-11.5-15-1.5-1.1-3.1-2-4.8-2.8-1.5-.6-2.9-1.3-4.3-2.1-1.3-.8-2-.5-2.7.8-.4.7-.6 1.5-.9 2.2-3.6 11.1-11 20.6-20.9 26.9-3.1 2-6.3 3.9-9.6 5.5-.8.3-1.8 1.2-2.3.1-.6-1.2.8-1.5 1.6-1.9 6.1-3.1 11.8-7.1 16.8-11.9 7.8-7.6 12.6-17.8 13.4-28.7.2-2.3-.3-4.6-.6-6.9-.1-.6-.3-1.3-.8-1.7-.6-.9-1.7-1.1-2.6-.5-.2.1-.4.3-.5.5-.5.6-.9 1.3-1.2 2-1.6 3.2-2.9 6.4-4 9.8-1.5 4.6-4 8.8-7.3 12.3-7.1 8.2-16.1 13.2-26.5 16.1-7.1 2-14.4 3-21.8 2.9-1.3-.1-2.6 0-3.8.2-1.9.2-3.5 1.4-4.1 3.2-.7 1.9-.1 4 1.5 5.1.6.4 1.1 1 .7 1.8-.4.8-1.3 1.3-2.2 1.1-1.2-.1-2.3-1-2.6-2.2-.3-1.2-.5-2.4-.6-3.7z"/>
  <path d="M448.6 365c0 .5-.4.7-.8.9-3.8 1.6-7.5 1.9-11.2-.3-2.7-1.6-5-3.8-6.6-6.6-6.7-12.3-6.9-24.8-.3-37.1 3.2-6 10.1-7.5 15.8-3.8.2.1.4.3.6.4.8.5 1.6 1.3 2.6.6s.7-1.7.6-2.7-.3-2.1-.3-3.1c-.2-1.3.7-2.5 2-2.6h.5c1.6-.1 3.2-.1 4.8-.1.8 0 1.6.3 2.1 1 1.1 1.2 2.7 2 4.4 2 5.2.7 10.4.1 15.5-.7 6-.9 11.9-2.5 18-3 3.5-.3 6.2-2.4 8.5-5 1.5-1.6 1.3-3.2-.4-4.6-1.5-1.3-3.2-2.1-5.1-2.6-2.5-.6-5-.9-7.6-1.1-2.1-.1-4.2.2-6.1.9-7.8 2.8-16 4.7-24.3 5.4-1.8.2-3.6.6-5.4 1.1-1.9.6-3.9.8-5.9.4-2.2-.4-4.5 0-6.5 1.1-2.2 1.2-4.6 2-7 2.5-1.2.2-2.3.6-3.4 1.1-5 2.6-10.4 3.6-15.8 4.7-2.7.5-5.5.8-8.1 2.2-.5.3-1.1.5-1.5 0-.4-.5-.3-1.3.1-1.8.6-.9 1.6-1.6 2.7-1.9 1.2-.3 2.3-.5 3.5-.7 9-1.4 17.9-3.6 26-7.9 1.1-.5 2.2-.8 3.4-1.1 3.5-1 4.6-2.4 4.4-5.9-.4-4.4-1.4-8.6-3-12.7-1.1-2.9-5.3-4.8-8.4-4.3-.9.2-1.7.7-2.1 1.5-2 3-4.5 5.6-6.1 8.9-.1.1-.1.3-.2.4-.9 1.4-1.7 1.9-2.4 1.3-1.1-.9-.3-1.7.1-2.5.5-.8 1-1.6 1.6-2.4 3.6-4.1 5.5-9.1 7.1-14.3.8-2.9.4-6-1.2-8.6-.9-1.7-2.2-2.2-4-1.6a9.4 9.4 0 00-3.5 2c-4.6 3.9-8 8.5-8.7 14.7-.2 1.4-.5 2.8-1 4.2-.3.8-.6 1.5-1.1 2.1-.4.4-.8.9-1.4.6s-.6-.9-.4-1.4c.2-.9.6-1.8.9-2.7 1.4-3.5 2.1-7.2 2-11 0-1.7-.4-3.4-1.2-4.8-1.5-2.6-3.8-3.1-6.3-1.4-3.5 2.4-5.9 5.9-8.3 9.2-5.6 7.8-7 16.5-6 25.8.2 2.2.3 4.5.2 6.7.1 1.3-.8 2.6-2.1 2.8-1.4.5-2.6 1.3-3.5 2.4-2 2.2-4.2 4.1-6.7 5.8-1.7 1.1-3.1 2.5-4.3 4.1-1.3 1.7-2.9 3-4.7 4-.3.2-.8.4-1.1-.1-.1-.3-.1-.7.1-.9.4-.7.9-1.3 1.4-1.9 2.8-2.9 5.4-5.9 8.8-8.2 2.6-1.9 5.1-4.1 7.3-6.6 1.7-1.6 2.6-3.9 2.5-6.3-.1-2.7 0-5.4 0-8.1 0-4.1.6-8.2 1.8-12.1.7-2.3 1.7-4.5 3-6.5 2.8-4.1 6-7.9 9.6-11.3.5-.5 1.1-.9 1.7-1.3 3-1.9 5.9-1.2 7.8 1.8.5.8.8 1.6 1.2 2.3 1.2 2.2 1.6 2.2 3.2.5 1.8-2.1 3.9-4 6.2-5.6.7-.5 1.5-1 2.3-1.3 2.6-1.1 4.8-.4 6.1 2.1 1.4 2.4 2 5.3 1.7 8.1-.6 4.1.5 5.5 4.5 4.1.4-.1.8-.2 1.2-.2.9-.1 1.5.4 1.2 1.3-.5 1.8.3 3 1.5 4.2 1.2 1.3 2.2 2.8 2.7 4.5 1.1 3.1 2 6.3 2.7 9.5.4 1.9.5 3.8.2 5.7-.2 2.4.4 3 2.7 2.4 4.8-1.2 9.8-1.6 14.7-2.3 4.4-.6 8.6-1.8 12.6-3.6 6.1-2.7 12.4-2.8 18.8-1.2 2.7.7 5.1 2 7.1 3.8 2.8 2.5 3.2 4.7 1 7.8-1.4 2.1-2 4.6-1.5 7.1.4 3.2.4 6.4 0 9.6-.1 1-.1 1.9.1 2.9 1 6.5 1.1 13.1 1.6 19.6.1 2.5-.2 5-.9 7.4-.6 2-1.3 3.9-1.9 5.9-.7 2.7-2.7 4.8-5.4 5.6-3.5 1.3-6.9 3.1-10.6 3.8-.8.2-1.7.4-2.6.5-4.9.1-9.7.8-14.6.6h-1.2c-6.5-.1-10.7-3.5-13.2-9.4-2.1-5.3-3.4-10.9-3.8-16.5-.4-4.3-.6-8.6-1.3-12.9-.5-3.5-2-6.2-5.1-7.9-1-.5-1.8-1.3-2.8-1.9-4.4-2.7-8.5-2-11.6 2.2-2.5 3.5-4 7.5-4.4 11.8-.8 6.2-.3 12.5 1.6 18.5 1.5 4.6 4.8 7.7 8.5 10.4 1 .7 2.2 1 3.4 1h4.3c1 0 1.9-.2 2.4.6zM557.4 319.5c0 8.4.9 16.8 2.4 25 .7 4.3 1.3 8.5 1.8 12.8.2 1.5.2 3-.2 4.5-.1.4-.3.8-.8.7-.3-.1-.6-.3-.6-.7-.3-1.3-.5-2.7-.6-4-.2-3.5-.7-7-1.4-10.5-1.6-8.2-2.7-16.4-3.3-24.7-.2-2.4-.1-4.8-.1-7.2 0-1.8-.1-3.7-.3-5.5-.2-2.2.2-2.9 2.1-3.8 1.1-.5 2-1.3 2.6-2.4 2.8-4.5 6.9-7.7 11.5-10.3 1-.6 2-1 3.2-1.1 2.1 0 3.9-1.5 4.2-3.6.4-1.5 1.3-2.8 2.7-3.5 1.4-.8 2.3-.5 2.7 1.1.4 1.9.7 3.8.7 5.7.1 1.2-.7 2.3-1.9 2.4-.5 0-.9.2-1.4.4-1.6 1.4-3.9 1.4-5.5.1-1-.5-2.1-.4-3 .2-3.7 1.9-7.3 4-10 7.3-.5.6-1 1.2-1.4 1.9-.5.7-1.1 1.5-.5 2.4s1.6.5 2.4.3c.4-.1.8-.2 1.1-.4 3.1-1.1 6.4-1.6 9.7-1.6 5 .1 9.9-.1 14.8-.5l2.4-.3c1.4-.2 2.5-1.3 2.8-2.6l.2-.7c.9-3.7.6-4.4-3-5.8-.8-.3-1.6-.7-2.4-1.1-.3-.1-.5-.5-.4-.8.1-.3.4-.5.7-.5.7-.1 1.5 0 2.1.2 1.2.4 2.4.8 3.6 1.3 2.3 1.1 5 .3 6.3-1.8 2.4-3.1 4.7-6.2 7-9.4 1.5-2.1 2.9-4.2 4.1-6.5.9-1.6 2.2-3 3.7-4 1.4-1.1 2.8-.7 3.3 1 .5 1.5.4 3.1-.3 4.4-2.8 5.5-5 11.3-8.2 16.5-1.3 2-1.6 4.5-.6 6.6.1.1.1.3.2.5.5 3.3 1.4 6.5 2.9 9.5.9 1.8.8 4.1 1 6.1.6 7.6 1.8 15.2 1.6 23-.1 2.6.5 5.2.3 7.9-.2 3.2-1.2 5.9-3.8 8-1.5 1.1-3.2 1.9-5 2.2-2.9.6-5.8 1.1-8.8 1.3-4.3.4-8.6 1-12.8 2-1.1.3-2.2.3-3.3.2-4.7-.6-9.5-.2-14 1.2-.7.2-1.4.3-2.1.4-.7.1-1.3-.3-1.5-.9-.3-.7 0-1.5.6-1.9.9-.8 2-.7 3.2-.8 6.8-.5 13.6-.5 20.3-1.5 5.9-.9 11.9-1.6 17.8-2.5 2.9-.4 4.1-1.8 4.1-4.4 0-2.9-2.2-4.2-4.8-2.9-.4.2-.8.5-1.1.9-1.7 2.8-4.6 3-7.3 3.4-3.3.5-5.4-1.5-5.3-4.9-.1-1.8.4-3.5 1.3-5 .5-.7 1.1-1.4 1.9-1.8 1.4-.7 2.2-.2 2 1.3-.2 1.9-.6 3.8-.6 5.7s.3 2.2 2 1.7l1.8-.6c1.4-.4 2.4-1.5 2.5-2.9.5-2 1.1-4 1.7-6 .2-.8.5-1.5.9-2.2.4-.9 1.3-1.5 2.2-1.5 1 .1 1.8.8 2.1 1.7.5 1.3.9 2.5 1.5 3.8.2.4.4.9 1 .8.5-.1.5-.6.5-1 .1-.5.1-1 .1-1.4-.7-6.7-.5-13.4-1.8-20-.4-2-.6-4-.6-6-.2-4.4-1.9-6.6-6.2-7.7-3.1-.7-6.2-.8-9.3-.3-5.2.6-10.4.9-15.5.8-6.3-.2-12.4.9-18.6 1.8-3.1.4-3.6 1.2-3.7 4.3.4 2.3.4 4.2.4 6.2zM75.4 310.6c-.4-1.7-.6-3.5-.6-5.3-.1-7.8.3-15.5 1.3-23.2.5-3.7.5-7.5-.1-11.2-.2-1.7-.3-3.3-.3-5 0-3.3-.6-6.6-2-9.6-.9-2.1-1.4-4.4-1.4-6.8-.2-5.8.1-11.5.9-17.2.3-2.1.8-4.1 1.3-6.1 2.2-9.2 3.6-18.6 4-28 .5-8.3.5-16.6 1-24.9 0-.8-.3-2.1.8-2.2s.9 1.3 1 2.1c.2 4.4 0 8.8-.7 13.2-.3 2-.1 3.6 1.7 4.9.9.8 1.5 2 1.4 3.2.1 7.2.5 14.4-1.6 21.4s-1.9 14.1-.5 21.1c.9 4.5 1.4 9 1.5 13.6 0 2.8.3 5.6.8 8.3.7 4.5 0 8.9-.3 13.4 0 .6-.1 1.3-.2 1.9-.7 3.2-.4 6.6.7 9.7.5 1.6.8 3.3.6 5-.2 2.8.6 5.5 1.2 8.3 1.4 5.9 3.1 11.8 3.8 17.8.6 5.1 1.2 10.3.5 15.5-.3 2.8-.3 5.6-.6 8.4-.1 2.6-.5 5.3-1.2 7.8-2.4 8.9-3.3 18.1-4.8 27.2-1.1 6.9-2 13.8-3.6 20.6-1.3 5.8-1.9 11.7-1.8 17.6 0 5.1.5 10.2.8 15.3 0 .2 0 .3.1.5 2.3 5.8 3.1 12.1 6.4 17.5.2.3.3.6.4.9.2.3.1.6-.1.9-.2.2-.6.3-.9.1-1-.3-1.9-.9-2.6-1.7-1.1-1.2-1.9-2.6-2.5-4.1-2-5.3-3.2-10.7-3.8-16.3-1.1-10.9-.7-21.9 1.2-32.7 1.5-9 3.2-18 4.6-27 1-6.4 2.4-12.7 3.6-19.1 1.5-7.1 2.2-14.4 2-21.7-.2-7.2-1.2-14.4-2.9-21.4-.1-.7-.4-1.4-.8-2-1-1.5-1.6-3.3-1.6-5.2-.3-3-.4-5.9-.4-8.9-.1-2.5-.5-4.9-1.4-7.3-.2-.6-.5-1.2-.9-1.7-.2-.3-.6-.4-.9-.2-.1.1-.2.2-.2.3-.3.6-.5 1.2-.6 1.8-.3 1.9-.6 3.8-.7 5.7-.1 8-1.2 15.9-1.6 23.9.3.6.2.7 0 .9zM189.7 36.2c-1 1.4-1.7 3-1.9 4.7-.9 3.7-2.1 7.4-3.7 10.9-2.4 5.1-4.5 10.4-7.1 15.5-.9 1.9-2 3.6-3.3 5.3-2 2.5-3.6 5.3-4.8 8.2-.9 2-1.4 4.1-1.4 6.3-.4 7.7-1 15.3-1.4 23 0 1-.3 1.9-.9 2.7-.3.4-.6.8-1.2.7s-.6-.7-.6-1.2c.1-1.4.1-2.7.3-4.1.7-6.9 1-13.9 1-20.8 0-3.6 1.1-7.2 3-10.2l8.7-14.1c.3-.5.6-1 .8-1.5 2.3-6.3 5.4-12.3 7.4-18.7 1.8-5.8 2.4-11.8 3-17.7.5-5.6.4-11.3 1.7-16.9.4-1.6.3-3.3.5-5 .1-.8.1-2 1.3-2s1.1 1.2 1.2 2.1c.1 1.1.1 2.2.1 3.3-.2 5.3.1 10.6.8 15.8.2 1.6.2 3.2 0 4.8-.9 7.7 0 15.4 2.5 22.7 2.3 6.6 3.5 13.5 3.4 20.4 0 4.6-1.1 9.1-3.2 13.2-1.8 3.7-3.3 7.6-4.5 11.6-1.7 5.4-1.8 11.1-.2 16.5.9 3.5 2 6.9 3.3 10.3 2.3 5.4 4.1 11.1 6.7 16.4 1.2 2.4 1.7 5.1 1.3 7.7-.1.9-.1 1.8-.1 2.6-.2 7.8.4 15.7-.4 23.5 0 1.4.1 2.7.5 4 .1.8.3 1.7-.8 2s-1.5-.4-1.9-1.1c-.5-.9-.7-1.8-.7-2.8-.1-3.4 0-6.9.2-10.3.3-4.8 1.1-9.5.3-14.4-.2-2.1-.2-4.2-.1-6.2.1-1.8-.3-3.5-1.2-5.1-4-6-5.6-13-8.1-19.7-.9-2.3-1.6-4.7-2.2-7.1-1.8-6.8-1.1-14 2-20.4 2.3-5.3 4.3-10.7 6-16.2.5-1.2.7-2.5.5-3.8-.7-4-.8-8.1-1.3-12.2-.2-1.7-.6-3.5-1.2-5.1-1.6-4.6-2.7-9.4-3.3-14.2.1-1.1-.3-2.4-1-3.4zM574.6 260.2c-.4-.9-.4-1.9-.2-2.8.1-1 .3-1.9.7-2.8 2.7-6.6.1-10.8-6.5-15.7-.4-.3-.8-.6-1.3-.2s-.3.9-.1 1.3c1 2.4 2 4.9 3.1 7.3 1.8 3.9 2.3 8.2 1.4 12.4-.9 4.1-2.1 8.1-3.6 11.9-.8 1.8-1.4 3.6-2 5.4-1.4 5.1-4.8 8.7-8.7 12.1-1.8 1.5-3.5 3-5.3 4.5-.9.8-2 1.4-3.1 1.7-6.2 1.4-12.3 2.7-18.7 2.8-10.9.2-19.1-4.5-25.1-13.3-1.5-2.2-3-4.6-4.4-6.9-1.6-2.5-2.2-5.6-1.7-8.5.6-5.3 1.6-10.6 3.1-15.8 1.8-6.4 5.8-11.9 11.3-15.6 6.2-4.2 13-6.9 19.9-9.5 1.6-.6 3.2-1 4.8-1.6 2.7-1 5.7-1.2 8.5-.5 3.4.8 6.9 1.5 10.3 2.4 3.8 1 7.3 3 10 5.9 2.5 2.6 5.2 5 7.4 7.9 1.6 1.9 2.4 4.4 2.4 6.9-.4 3.6-1.1 7.2-2.2 10.7zM722.4 237.2c-2 .6-4.2.6-6.3 0-1.7-.4-3.4-.9-5.1-1.5-5.8-2.2-11.7-3.9-17.7-5.2-.3-.1-.6-.1-.9-.2-7.2-2.9-14.8-2.9-22.4-3.7h-.5c-5.7-.9-11.2-.3-16.9.7-8.9 1.6-17.8 1.1-26.7.1s-17.8-1.9-26.7-3c-3.8-.3-7.7-.4-11.5-.1-4.5.1-9-.5-13.3-1.7-6-1.7-12.3-2.5-18.5-2.3-3.4.2-6.9 0-10.3-.4-2.8-.3-5.6-.3-8.3.2-1 .3-2.2.2-3.2-.2.4-1.1 1.3-1.1 2.1-1.3 4.1-.8 8.3-1 12.4-.5 3.5.3 7 .3 10.5 0 4.4-.3 8.8.1 13.1 1.3 5.4 1.5 11 2.1 16.6 1.9 8.1-.4 16.1.7 24.1 1.7 7.1.8 14.3 1.9 21.5 2 8.1.1 16.3 0 24.2-2.4 1.9-.5 3.9-.7 5.9-.4 6.4.6 12.8.8 19.1 1.8 10.2 1.4 20.2 4.4 29.5 8.8 2.7 1.4 5.5 2.6 8.3 3.7.6-.1.9.3 1 .7zM841.6 158.3c-.4 2.6-1 5.3-1.8 7.8-1.3 4-2.5 7.9-3.8 11.9-.7 2.1-.6 4.3.3 6.3.4.9.8 1.7 1.2 2.6 1.7 3.6 2.6 7.6 2.6 11.6 0 5-.4 10.1-1.2 15.1-.3 1.9-.4 3.8-.3 5.7.3 5.3 2.5 8.2 7.6 9.9.9.3 1.8.5 2.8.8.5.1 1 .4.8 1s-.7.7-1.2.6c-2.9-.1-5.9-.5-8-2.6-2.7-2.7-4.7-2.3-6.3.9-.6 1.2-1.6 2-2.9 2.4-.4.2-.8.1-1.1-.2-.2-.3 0-.6.1-.9 1-2.5 1-2.5-1-4.2-1.3-.9-1.7-2.6-1.2-4.1.8-2.7.9-5.5.4-8.3-1-5.7-.9-11.5.2-17.2 1.6-8 2.5-16.1 3.6-24.2.5-3.6 1.2-7.3 1.8-10.9.2-1.3.6-2.5 1.1-3.7.7-1.4 1.9-2.4 3.4-2.8 2-.4 3 .4 2.9 2.5zM129.9 144c.2-1.6.4-3.2.5-4.8.4-2.5 0-5-1.1-7.2-1.1-1.9-2.2-2-3.4-.2-.5.8-.9 1.7-1.3 2.6-1.9 4.7-3.9 9.5-5.7 14.2s-5.3 7.2-10.2 8c-1.6.3-3.2.4-4.8.5-.7.1-1.6-.1-1.7-1s.7-1.2 1.3-1.4c1.7-.5 3.4-.9 5.2-.9 3.2-.2 6-2.2 7.1-5.2 1.9-4.1 3.6-8.2 5.2-12.4 1-2.7 2.2-5.3 3.5-7.9.4-.8.9-1.5 1.4-2.2 1.3-1.9 2.4-1.8 3.6.2 1.6 2.7 2.5 5.7 2.7 8.9l.6 7.2v.2c.3 2.6 1.4 3.2 3.7 1.8 1.5-.9 2.9-2 4.2-3.2 3.1-2.8 5.7-6.1 7.8-9.7 1.2-2.2 2.6-4.2 3.8-6.4 2-3.3 3.5-6.9 4.2-10.7.1-1 .4-1.9.9-2.7.2-.4.6-.6 1-.6.4.1.7.4.7.8.2 1 .1 2.1-.2 3.1-.8 3.3-2 6.6-3.5 9.7-3.2 6.8-7.5 13.1-12.8 18.4-2.5 2.5-5.6 4.3-8.9 5.5-2.6.9-3.8.1-3.9-2.6 0-.6.1-1.3.1-1.9v-.1z"/>
  <path d="M169.8 110c-.3-3.8.3-7.7 1.6-11.3 1.1-2.4 2.3-4.7 3.8-6.9 2.2-3.5 4-7.1 4.5-11.2.1-1.1.6-2.2 1.3-3 .3-.5.9-.7 1.5-.5.5.2.9.8.9 1.3.1.8-.1 1.6-.5 2.3-2.5 5.4-2.9 11.4-3.5 17.2-.2 2.1.2 4.2 1.3 6 2.2 4 2.9 8.5 2.2 13-.4 3.8-1.1 7.6-2.1 11.3-.3 1.2-.5 2.5-.5 3.8 0 .5-.1 1-.1 1.4-.1.6-.3 1.1-1 1.2s-.9-.3-1.2-.7c-4.9-7.1-9.2-14.5-8.2-23.7v-.2zM473.2 498.3c.2-1.8 0-3.5-.6-5.2-.2-.6-.4-1.3-1.2-1.3s-1 .7-1.3 1.3c-.8 1.8-1.3 3.6-1.5 5.5-.1 1-.3 1.9-.8 2.7-.2.5-.8.8-1.4.7-.5-.1-.8-.5-.9-1-.1-.1-.1-.3-.1-.5.2-2.9 0-5.9.7-8.8.5-2.2 2.3-3.6 4.4-4.5 1.2-.6 2.7-.2 3.3 1 .9 1.4 1.6 2.9 2 4.6l.3 1.2c.2.9.5 1.8 1.5 2s1.7-.6 2.2-1.5.9-1.5 1.4-2.3c.4-.8 1.1-1.4 1.9-1.7 1-.5 2.1-.3 2.9.4.9 1 .4 2-.3 2.8-.8 1.1-1.7 2.1-2.5 3.2-.7.9-1.2 1.9-.6 3.1.6 1.1 1.9 1.6 3.1 1.4 1.2 0 2.4-.2 3.6-.3.6 0 1.4 0 1.7.7s-.3 1.3-.9 1.8c-2.8 2.2-6.8 2.2-9.5-.1-1.5-1.4-3-2.2-5.2-1.6-1.3.4-2-.3-2.2-1.8-.1-.5-.1-1.2 0-1.8zM75.7 316.4c.5.6.6 1.4.5 2.1.2 3.8-.1 7.5-.7 11.2-1.4 8-1.9 16-2.6 24.1-.7 7.3-1.3 14.6-2.4 21.9-.3 2.1-.7 4.3-.8 6.4-.3 5.6-1.9 11-3.4 16.4-3.8 13.2-7.4 26.5-9.8 40.1-.3 1.9-.6 3.8-1 5.7-.1.4-.2 1-.9 1.1-.5-.7-.6-1.6-.4-2.5.2-4.6.9-9.2 2-13.7 2-9.6 5-19 8-28.4 2.9-9 4.2-18.4 5.4-27.8 1-7.9 2-15.9 2.7-23.8.4-4.5.7-9.1 1.1-13.6.4-4.1 1.3-8.1 1.6-12.1.1-1.6.3-3.2.3-4.8-.1-.7 0-1.6.4-2.3zM348.9 504.9c.2 1.8.1 3.5-.2 5.2 0 .5-.2 1.2-.9 1.3s-1.1-.6-1.2-1.3c-.2-.9-.2-1.9-.2-2.9 0-2.1-.4-4.1-2.2-5.6-1.2-1-1.2-1.9-.2-3.1 1.6-1.9 2.2-4.5 1.6-7-.3-1.6-.1-3.2.5-4.7.3-.8.5-1.9 1.6-1.9s1 1.3 1.1 2.1c.1 1.4.1 2.9.1 4.3 0 1.9.1 3.7 2.3 4.5s4.5 1.2 6.4-.9c.7-1 1.8-1.6 3-1.9.6-.1 1.2-.1 1.5.5s-.3 1-.8 1.3-1.1.6-1.6 1c-2.5 2-2.6 4.5-.4 6.8.8.7 1.5 1.4 2.2 2.2 1.2 1.7.8 4.1-.9 5.3-.6.4-1.3.7-2 .7-1.9.1-2.6-.8-1.6-2.5.5-.8.4-1.9-.2-2.7-.4-.6-.8-1.2-1.3-1.8-1.1-1.2-1.6-2.8-1.5-4.4.1-1.4-.5-1.6-1.8-1.1-1.8.6-3 2.3-3.1 4.2-.3 1-.2 1.7-.2 2.4zM442.3 487c0 1-.1 1.9 0 2.9.2 2.3 1.1 3.1 3.4 3 .9 0 1.8-.2 2.6-.2.6-.1 1.3 0 1.9.3.5.2.7.8.5 1.3-.1.2-.2.3-.3.4-.3.2-.7.4-1.1.5-.5.1-.9.2-1.4.3-4.4.8-5.2 1.9-4.6 6.3.1.6.2 1.1.2 1.7 0 .6-.1 1.4-.9 1.5s-1.3-.5-1.5-1.2c-.2-.7-.3-1.4-.3-2.1-.1-2.3-.9-4.1-3.1-5.2-1.5-.7-1.6-1.5-.2-2.5 1.3-.9 2.1-2.5 1.9-4.1v-6.2c0-.7 0-1.4.1-2.2.3-3.7 1.7-4.8 5.4-3.9 1.6.4 3.3.8 4.9 1.2l1.8.6c.5.2.8.6.7 1.1-.1.6-.5.8-1 .9-.8.2-1.6.2-2.4 0-.9-.1-1.7-.4-2.6-.5-2.4-.3-3.6.6-3.9 3-.1 1-.1 2-.1 3.1zM564.7 350.5c.2-2.5.8-5 1.8-7.4.7-1.8 2.3-2.5 3.6-1.9.5.2.9.6 1 1.2.1.7-.5 1-1.1 1-1.8.1-2.4 1.4-2.6 2.9-.5 1.9-.5 3.8-.1 5.7.6 2 1.8 2.5 3.6 1.4 2.5-1.4 4.2-3.1 3.7-6.3-.1-.9 0-1.8.1-2.6.1-.6.2-1.1.9-1.2s.8.4 1.1.8c.2.5.5 1 .8 1.5.4.6 1.2.9 1.9.7.6-.2 1.1-.7 1.2-1.4.2-.9.2-1.7.4-2.6.1-.4.3-.8.8-.8.3 0 .6.3.7.6.2.4.3.9.4 1.4.5 2.3.9 4.7 1.4 7 .3 1 .2 2.1-.1 3.1-.2.5-.5 1-1.2 1s-1-.5-1-1.1-.2-1.4-.3-2.1-.5-1.5-1.4-1.7c-.8-.1-1.6.3-2.1.9-.4.6-.7 1.3-.7 2-.1.7-.3 1.4-.5 2.1-.4.9-1.1 1.3-1.9.6-1.2-1-2.2-.6-3.2.3-.5.4-1 .8-1.6 1.1-1.2.9-3 .6-3.9-.6-.1-.1-.2-.2-.2-.4-.9-1.6-1.5-3.4-1.5-5.2zM327.6 493.6c.3-1.5 1.4-2.3 2.3-3.1 1.3-1.2 3.1-1.7 4.6-2.6.9-.5 1.7 0 2.3.7.7.9.9 2.1.7 3.2-.8 3.9-.6 7.8-.9 11.7-.2 2.1.2 2.6 2.3 3.3.4.1.8.2 1.1.4.5.2.7.7.5 1.1 0 .1-.1.2-.2.3-.2.3-.5.6-.8.8-2.2 1.4-4.8 2.2-7.5 2.1h-.5c-.6-.1-1.1-.2-1.3-.9-.2-.6.1-1.2.6-1.4 2.6-1.3 2.7-3.7 2.7-6.2 0-2.7-.5-5.4-.2-8.1.3-2.3-1.4-3.2-3.4-2.2-.7.4-1.2 1.1-2.3.9zM391.4 497.5c0 2.7 0 5.5 2.1 7.6.4.4.4 1.1 0 1.5-.5.6-1.3 1.1-1.9.6-2.1-1.5-3.9-1.4-6.1-.1-1.2.7-2.4-.2-3.1-1.8-.8-2.2-.9-4.6-.4-6.9.5-2.8 1.8-5.3 3.8-7.4 1.3-1.5 2.2-1.5 3.7-.3 1.1.8 1.8 2.1 1.8 3.5.1 1.3.1 2.3.1 3.3zM477.8 255.3c.8-1.1 1.9-2 3.1-2.6 6.6-3.5 12.7-7.7 18.2-12.7 3.1-2.5 6.4-4.8 9.8-6.9 2.5-1.5 4.7-3.3 6.6-5.5 1.6-1.8 3.4-3.3 5.4-4.7 1.2-.9 2-.5 2.1.9.1 2.2-.7 4.3-2.4 5.8-.6.4-1.3.6-2 .4-1.6-.2-3.2.4-4.4 1.6-1.4 1.2-2.9 2.3-4.6 3.1-4.8 2.6-9.3 5.9-13.4 9.6-3 2.7-6.3 4.9-9.9 6.7-2.8 1.5-5.6 2.9-8.5 4.3zM567.4 312.3c1.3.1 2.4 1.1 3.4 2.5 2.2 3.1 1.7 5.6-1.8 7.1-2.4 1.1-3.4 2.6-3 5.2.2 1.2.2 2.5.3 3.8.1.7.1 1.4-.3 2.1-.2.5-.8.8-1.3.6-.2-.1-.4-.2-.5-.4-.2-.2-.3-.4-.4-.6-1.7-5.1-3.4-10.1-2.2-15.6.6-2.5 3.6-4.8 5.8-4.7zM341.8 445.4c-1.1-.2-2.4.3-2.9-1.1-.3-.8.6-1.5 2.6-1.8 4-.6 8-1.3 12.1-1.7 4.8-.5 9.6-1.7 14.1-3.6 1.5-.6 3-1 4.5-1.5.5-.1 1-.2 1.3.3.4.7-.2 1-.7 1.3-.3.2-.5.4-.8.5-5.2 2.4-10.3 4.8-16 5.4-4 .5-7.9 1.2-11.8 1.9-.8.2-1.6.2-2.4.3zM596.9 329.3c-.7-.5-.4-1.1-.3-1.7l1.8-10.2c.3-1.6 1-3.1 1.9-4.4.4-.6.9-1.2 1.7-1s1 .9 1.2 1.6.2 1.4.4 2.1c.2 1 .4 2 .8 3 .5 1.4.7 2.8.8 4.2.1 1.3.3 2.7.5 4 .1.3.1.6.1 1 0 .9.2 2-1 2.1s-1.2-.9-1.4-1.6-.4-1.5-.6-2.3-.7-1.5-1.5-1.7-1.6.5-2.2 1.2c-.5.9-1 1.8-1.3 2.8-.3.5-.4.9-.9.9zM404.3 321.2c0 .7-.5 1.1-.9 1.6-3.5 4.3-7.1 8.6-10.6 13-2.4 2.9-4.5 6-6.1 9.4-.1.1-.1.3-.2.4-.5.8-.8 1.9-2 1.6-.9-.2-1.9-2.2-1.8-3.2.1-.5.4-.9.9-1 .8-.2 1.5-.6 1.9-1.3 3.3-5.8 8.1-10.5 12.2-15.6 1.1-1.6 2.3-3.1 3.6-4.5.5-.6 1.2-1.1 2-1.2.4 0 .9.3 1 .8 0-.1 0 0 0 0zM232.6 156.9c-3.4-.1-6.8-.5-10.2-1.1-1.1-.1-2.2-.6-3-1.4-.5-.6-.3-1.1.4-1.2.6 0 1.1 0 1.6.1 10.4 2.5 20.4.8 30.4-2.3.9-.4 1.8-.6 2.8-.6.2 0 .5.1.6.3.2.3.1.6-.2.8-.8.8-1.8 1.3-2.8 1.8-3.9 1.6-8.1 2.6-12.3 3-2.4.4-4.8.6-7.3.6zM373.3 426.1c1.5-.5 2.9-1.4 4-2.6.2-.3.5-.4.8-.3.5.1.5.6.5 1-.4 3.6.5 7 1.3 10.4 1.6 6.2.4 12.4-.3 18.6-.1.4-.2.8-.4 1.1-.2.5-.6.8-1.1.8-.5 0-.8-.5-.9-1-.2-1.2-.2-2.4.1-3.6.5-3.2 1.3-6.4 1.2-9.7-.1-3.4-.6-6.7-1.4-9.9-.5-2.2-1.9-3.9-3.8-4.8zM410.6 492.1c0 2.4.1 4.8.4 7.2.3 2.1.2 4.3-.4 6.4l-.6 1.8c-.2.5-.6.8-1.1.7-.5-.1-.9-.5-.9-1-.3-1.9-.3-3.8 0-5.7.4-3.7.4-7.5 0-11.2-.2-2.6-.1-5.3-.1-7.9 0-.4 0-.8.1-1.2.1-.4.2-.8.7-.9.6-.1.8.4 1 .9.6 2.3.9 4.7 1 7.1-.1 1.2-.1 2.5-.1 3.8zM593.4 316.3c-.2 1.4-.9 2.8-1.8 3.9-1.8 2.4-1.8 3 .2 5.4.4.4.7.9 1 1.4.4.6.3 1.3-.3 1.7-.5.4-1.1.4-1.6 0l-.4-.3c-.6-.5-1-1.3-1.9-1.3s-1.1 1.1-1.6 1.6-1.1.6-1.5-.2c-.2-.4-.3-.7-.3-1.1-.3-3-.9-6-1.6-9-.1-.3-.1-.6-.1-1 0-.6-.1-1.2.6-1.4s.8.5.9.9.3 1.2.6 1.8c.7 1.5 1.6 1.8 3.1 1 1-.7 2-1.6 2.9-2.5.7-.2 1.2-.6 1.8-.9zM402.4 493.2v9.6c.1 1-.2 2.1-.7 3-.2.5-.7.7-1.2.6-.4-.1-.7-.4-.8-.8-.1-.6-.2-1.3-.2-1.9.6-6.5.1-13.1.9-19.6v-.5c.2-.8-.1-2.1 1.2-1.9 1 .1 1 1.4.9 2.2-.1 3.1 0 6.2-.1 9.3zM127.2 147.8c-.2 3-1 5.9-2.5 8.5-.9 1.7-2.7 2.8-4.7 2.8-1.7 0-2.3-1-1.3-2.3 2.1-3.1 3.7-6.5 5.8-9.6.2-.3.4-.7.7-1s.6-.8 1.2-.6.7.6.8 1.1c-.1.3 0 .7 0 1.1zM579.9 326c-.1 1.2.1 2.6-1.2 2.7s-1.3-1.3-1.5-2.3c-.7-3.6-.4-7.2-.7-10.8-.1-.8.1-1.7 1.1-1.8.9-.1 1.2.7 1.4 1.4.2.7.3 1.4.4 2.1.2 3-.1 6 .5 8.7zM458.8 491.4c.7.4.7 1 .7 1.5 0 2.6.1 5.3 0 7.9 0 1.8-.7 2.8-1.5 2.6-1.3-.4-1.2-1.5-1.2-2.5-.2-2.6.2-5.1.9-7.5.2-.9.3-1.7 1.1-2zM589.1 346.2c-.2 2.1-.4 4.3-.7 6.5-.1.5-.3 1.2-1 1.2s-.9-.6-1-1.1c-.1-.5-.2-.9-.2-1.4.1-2.6.4-5.2 1-7.8.1-.5.2-1 .8-1 .7 0 .8.6.9 1.2.2.7.2 1.5.2 2.4zM457.5 482.9h.2c.8.3 1.5.5 1.7 1.4 0 .2-.1.3-.2.4-.9.2-1.8-.2-2.3-.9-.1-.2-.1-.4 0-.7.1-.2.4-.3.6-.2zM501.9 500.1l.3.3c-.1.1-.2.3-.3.3s-.2-.1-.3-.2l.3-.4zM298.8 284.6zM593.4 316.3zM477.8 255.3z"/>
  <path fill="#FFF" d="M279.7 202.4c-.4 5.7-1 11.3-3.4 16.6-1.5 3.4-4.1 6.1-6.6 8.8-.6.6-1.2 1-2 1.3-3 1.2-6.2 2.2-9.4 3-5 1-9.1-.9-12.4-4.6-2.3-2.6-4.4-5.5-4.9-9.2-.2-1-.7-2-1.2-2.8-1.7-2.9-2.2-6.2-1.6-9.5.9-5.4 2.7-10.7 5.3-15.6 1.4-2.6 2.7-5.2 5-7.2 1.1-1.1 2.6-1.7 4.1-1.5 1.1.1 2.2.1 3.4 0 3.5-.2 7 0 10.5.6 3.3.5 6.2 2.3 8 5.1 3 4.4 5.5 9.2 5.2 15zM233.9 218c0-.1-.1-.1-.1-.2s.2-.2.3 0v.2h-.2zM229.6 314.7v.2l-.1-.1zM301.7 179.4c-.1-8.7 2.5-17.1 7.6-24.2.8-1.1 1.6-2.2 2.3-3.4 2.1-3.2 5.1-5.6 8.7-6.8 1.6-.5 3.1-1.3 4.5-2.2.8-.7 1.9-.9 3-.7.8 0 1.5.7 1.5 1.5 0 .4-.1.7-.4 1-.3.4-.6.8-.9 1.1-.7.7-1.3 1.4-2 2-7.5 6.6-10 15.3-10.3 24.9-.2 5.8 1.2 11.5 4 16.6 1.5 2.7 3.6 5.1 6.1 6.9 1.1.9 2.3 1.4 3.7 1.7 2.8.5 5.7.8 8.6.7 3.1-.2 4.3-1.3 4.5-4.4 0-2.1.6-4.1 1.8-5.9 1-1.4 1.5-1.4 2.5.1.5.6 1.2 1.1 2 1.2 1.1.4 1.4 1.2.8 2.1-2.9 4.4-5.9 8.8-11 11.1-3 1.4-6 2.6-9 3.9-6.4 2.8-12.2 1.1-17.7-2.3-4.1-2.6-6.2-6.6-7.7-11-1.9-4.4-2.6-9.1-2.6-13.9zM331.5 249.9c-1.5.1-2.8-.7-3.4-2.1-.6-1.6-1.3-3.2-2.2-4.8-.6-.9-.3-2.1.5-2.7 0 0 .1 0 .1-.1.9-.7 1.9-1.5 2.8-2.3.8-.8 1.9-.9 2.9-.4 2.3 1.1 4.1 3 5.2 5.4.8 1.5.4 3.3-.8 4.4-1.3 1.5-3.2 2.4-5.1 2.6zM323.8 247.1c.1 3.5-2.6 6.5-6.2 6.6h-.2c-.6 0-1.1-.1-1.6-.3-1.8-.9-3.4-4.6-2.8-6.5.4-1.1 1.3-1.9 2.4-2.1l4.8-1.5c2.5-.7 3.4 0 3.6 2.6v1.2zM298.9 254.7c-.1-.5.1-1 .6-1.2 2-1.4 4.1-2.8 6.2-4.1.5-.3 1-.5 1.5-.7 1-.5 2.2 0 2.6 1 .1.1.1.3.1.4.5 1.5.4 3-.1 4.5-.4 1.3-1.7 2.1-3 1.9-2.7-.2-5.3-1.3-7.9-1.8zM286.5 258.5c.7 0 1.3.3 1.6.8.3.5.5 1 .8 1.5 1.5 2.8 2.7 5.8 5.5 7.7.8.5 1.9 1.7 1.2 2.5s-1.9-.4-2.5-1.1c-1.5-1.7-2.9-3.6-4.4-5.4-1.1-1.4-2.1-2.8-3.2-4.1-.3-.4-.5-.8-.2-1.3.2-.4.7-.7 1.2-.6zM340.5 239.2c0 .6 0 1.3-.8 1.6s-1.2-.3-1.6-.8c-.4-.5-.7-1-1-1.6-.4-.7-.2-1.6.5-2.1 1-.5 1.7.1 2.2.9.5.6.7 1.3.7 2zM303.8 276.5l-.1.1c-.1 0-.1 0-.2-.1-.1-.2 0-.2.2-.2s.1.1.1.2zM83.8 106.1l.1.1-.1.1zM240.1 89.1c1.7-.3 3.5-.1 5.2.4 5.3 1.4 10.8 2.4 15.8 4.7 2.9 1.5 5.7 3.3 8.3 5.3.3.2.6.5.8.8.9 1.3.6 2.3-1 2.7-1.8.5-3.6.9-5.4 1.1-4.4.6-8.2 2.4-12 4.5-9.4 5.3-18.4 11.2-27.4 17.2-.9.6-1.7 1.4-2.4 2.3-.7.9-1.7 1.5-2.8 1.7-1.4.2-2.4-.3-2.8-1.7-1.6-6.6-3.5-13.2-2.3-20.1.9-5 2.5-9.6 6.3-13.2 1-1 2.3-1.8 3.6-2.2 3.1-.8 6.1-1.8 9.2-2.8 2.2-.4 4.5-.7 6.9-.7z"/>
  <path fill="#FFF" d="M244 116.5c0 .2-.2.4-.5.4-.2 0-.3-.1-.2-.3l.3-.3c.2-.1.3 0 .4.2 0-.1 0-.1 0 0zM476.4 365.7h-6.7c-2.7.1-5.2-1.1-6.9-3.3-2-2.3-3.4-5-4.1-8-1.2-6-2.6-12-2.5-18.2-.1-1.7-.3-3.4-.8-5-1.1-4.3-2-8.6-3.4-12.8-.3-.9-.4-1.9-.5-2.8-.1-2.1.9-2.8 2.8-2.1.5.1.9.4 1.3.5 4.9 2 10.3 2.6 15.5 2 5.5-.5 10.9-1.5 16.2-2.9 1.9-.5 3.8-.7 5.7-.7 2.3.1 4.6-.1 6.9-.6 2.3-.5 3 .2 3.2 2.6v1.9c-.2 6.2.5 12.3 1.1 18.4.6 5.6.5 11.2-.2 16.7-.2 1.3-.5 2.7-1 4-1 3-3.2 5.4-6.1 6.7-6.3 3-13.4 4.3-20.5 3.6zM617.6 277.1c-.2 1.1-.6 2.1-1.1 3-1.8 3.5-3.8 6.9-5.5 10.4-1.1 2.6-2.6 5-4.2 7.2-1.5 1.7-3.3 3.3-5.2 4.6-.3.2-.5.3-.8.5-.8.3-1.8.6-2.4-.3s-.2-1.5.3-2.2c1.5-2 2.8-4.1 3.8-6.4.5-1 1.1-1.9 1.9-2.7 2.4-2.4 4.4-5.1 6.1-8 1.2-2 2.5-3.9 3.8-5.8.3-.5.6-.9 1-1.3.5-.5 1-.9 1.7-.5s.6 1 .6 1.5zM609.1 342.8c0 1.1-.7 2-1.5 1.9s-1-.7-1-1.4c0-1.2.8-2.3 1.5-2.2.5 0 1 .8 1 1.7zM581.9 290.6c-.1.5 0 1.2-.6 1.1s-.7-.8-.6-1.3.1-1.1.7-1c.6.1.3.9.5 1.2zM82.5 263.4v4.1c0 .6-.1 1.3-.3 1.9-.1.5-.5.9-1 .9-.4 0-.8-.3-.9-.6-.2-.5-.4-1-.5-1.6-1.7-7.6-3.3-15.3-4.4-23.1-.7-4.3-.6-8.6.3-12.9.5-2.3 1-4.5 1.4-6.8.1-.5.3-1.1.6-1.6.2-.3.5-.5.9-.3.2.1.3.3.4.5.2.4.2.9.2 1.4-.4 7.8 1.5 15.4 2.3 23.1.6 5 .9 10 1 15zM80 211.1c-.7-3.1-.5-6.3.3-9.4.1-.4.3-.8.8-.8s.7.4.8.8c.3.8.5 1.7.4 2.6-.1 2.4-.4 4.8-2.3 6.8zM536.8 293.7c-6.8.5-13.4-1.6-20-3.5-.9-.3-1.8-.6-2.7-1.1-4.3-1.9-7.6-4.7-9-9.4-.7-2.5-1.9-4.8-2.4-7.3-2.5-10.6-.5-20.1 7.6-27.9 2.1-1.8 4.3-3.3 6.7-4.6 2.7-1.6 5.4-3.1 8-4.8 2.9-1.9 6.1-3.2 9.5-3.9 1.5-.1 3-.8 4-2 .4-.5 1-.8 1.7-.9 2.9-.6 5.9-.4 8.7.7 1.2.5 2.5 1 3.8 1.4 6.4 1.8 10.6 5.9 13.3 11.9.9 2 1.7 4 2.6 6 1.1 2.7 2 5.5 1.4 8.4-1.2 6.2-2.6 12.4-5 18.2-2 5.1-5.3 9.6-9.4 13.1-4 3.4-9 5.4-14.2 5.5-1.5.3-3 .2-4.6.2zM532 295c-3.5 1.7-10.5.3-13-2.7 2.4-.2 4.4.7 6.4 1.2s4.2.5 6.6 1.5zM513.2 240.9c1-2.6 3.1-3.9 5.5-4.8.2-.1.5 0 .6.3.1.2 0 .5-.1.7-1.5 1.9-3.6 3.2-6 3.8zM830.9 207.3c-.1-5.5 1.1-10.9 2.1-16.2.1-.4.2-.8.3-1.1.5-1 1.1-1.1 1.8-.3.3.4.5.8.8 1.2 1.1 2 1.7 4.3 1.8 6.6.1 3.9-.2 7.8-1 11.7-.9 3.9-1.1 7.9-.8 11.9.1 1 .4 2.3-1 2.6s-1.7-1-2-2c-1.4-4.7-2-9.5-2-14.4zM179.9 114.8c.1 3-.1 5.9-.5 8.9-.1.9-.3 1.9-.4 2.8-.1.8-.2 1.7-1.1 2-1.1.3-1.5-.7-2-1.4-.8-1.2-1.4-2.5-2-3.8-3-7.5-3.1-15.8-.4-23.5.4-1.2 1-2.2 1.8-3.1.7-.7 1.3-.5 1.6.4.1.2.1.5.1.7.1 3.1.8 6.2 2.2 9 1.1 2.5.5 5.3.7 8zM388.5 497.1c0 1.7-.5 3.4-1.4 4.8-.2.5-.8.8-1.4.7-.6-.2-.9-.7-.9-1.2-.2-2.6.4-5.3 1.7-7.5.5-.8 1.1-.7 1.5.3.4.9.5 1.9.5 2.9zM569.3 317.9c.1 1.2-.7 2.3-2 2.5-1.5-.1-2.6-1.3-2.6-2.8-.1-1.2.7-2.3 1.9-2.5h.1c1.6.1 2.7 1.3 2.6 2.8zM601.5 319.7c-.1.1-.2.3-.3.3-.2 0-.3-.1-.3-.3v-.2c.1-.1.2-.2.3-.2.2.1.3.3.3.4z"/>
  <path d="M271 208.7c.7 3.6-.7 6.8-2.8 9.8-.6.9-1.1 1.8-1.6 2.7-3.2 6.1-12.2 7.6-17.3 3.1-4.5-4-5.5-9.2-5-14.8s2.4-10.7 6.8-14.6c2.5-2.2 5.5-3.3 8.5-4.3 1.4-.5 2.6.4 3.7 1.3 5 4.1 8 9.2 7.8 16-.1 0-.1.3-.1.8zM537.9 240.7c-.7 1-1.7 1-2.5 1.2-2.6.6-5 1.5-7.4 2.7-5.2 2.5-9.1 7.1-10.8 12.5-1 2.9-1.6 5.9-2 8.9-.9 7.5 2.6 12.2 8.8 15.2 4.6 2.1 9.4 2.2 14.3 2 1.1-.1 2-.7 2.5-1.6.3-.7 1.1-1.1 1.8-.8.1 0 .2.1.3.2 2 .9 2 .9 3.3-.8 1-1.4 1.9-1.8 3.2-1.4.9.3 1.2.8.5 1.6-1.3 1.4-2.8 2.4-4.5 3-3.2 1.2-6.7 1.8-10.1 1.7-5.1 0-10-1.2-14.5-3.5-6-3.2-9-10.1-7.4-16.7l1.5-6c2.7-10 9.7-15.4 19.3-18 1.2-.6 2.5-.6 3.7-.2z"/>
  <path d="M535.2 279.1c-1.2 0-2.3-.5-3-1.4-1-1.4-2.5-2.2-4.2-2.4-1.6-.2-4.4-3.3-4.6-4.8-.1-.7.2-1.3.8-1.6.9-.7 1.4-1.8 1.5-2.9 0-.5 0-1-.5-1.2s-.9.2-1.2.6l-1.5 2.1c-.4.5-1 .8-1.6 1.1-1.2.5-2-.1-2.1-1.4 0-.6.1-1.3.4-1.9 1-2.4 2.8-4.3 5.1-5.6 1.7-.9 2.4-.6 3 1.2.3 1.3 1 2.5 1.9 3.5.8.8 1.4.7 1.5-.5 0-.8.6-1.5 1.4-1.6.7-.1 1.5-.4 2 .4s-.4 1.1-.8 1.5c-1.2.9-1.7 2.4-1.3 3.8.2.6.2 1.3.2 1.9-.4 3.3 1.5 5.4 3.7 7.4.4.4 1.2.5 1 1.2s-1.1.6-1.7.6zM556.6 263.5c-.5 1.5.2 3.2 1.5 3.9.5.3.9.7.6 1.4s-.9.5-1.5.4c-2.3-.3-3.4-1.5-3.4-3.8-.1-2-.2-2.2-2.2-2.2h-1c-.9 0-1.4.3-1.2 1.3.2 1.4-.3 2.7-1.3 3.7-1 1.3-2 2.5-3.2 3.5-.8.7-1.7 1.2-2.8 1.4-.5.1-1.1-.3-1.2-.8 0-.3 0-.5.2-.7.5-.8 1.2-1.3 2-1.6 2-.7 3.1-2.8 2.5-4.8-.6-2.4.2-4.9 2-6.5.8-.8 1-2 1.6-2.9 1.1-2 2.1-2.2 3.7-.6s2.3 3.8 3.5 5.7c.7.6.4 1.5.2 2.6zM541.5 248.4c1.3-1.8 2-4.1 2-6.3 0-.2.1-.3.2-.4.2-.4.5-.7.9-.6s.3.5.4.8c.3 2.2.3 2.3 2.1 2.5 2 .2 3.5.9 3.8 3.2.1 1 .9 1.3 1.8.8.7-.4 1.2-.3 1.4.5.2.5.4 1 .8 1.5 1 1.3.7 2.1-.9 2.3-.4.1-1 .1-1.1-.1-1.6-2-4.4-1.7-6.2-3.4-.8-.7-1.9-1-2.9-.6-.8.1-1.6.1-2.3-.2z"/>
  <path d="M541.8 236c2.3-.9 4.9-.8 7.1.4 3.4 1.9 6.7 4 9.7 6.5 1.3 1 2.1 2.5 2.1 4.1.1 3.6 0 7.2 0 10.8 0 .2-.2.4-.3.6-.9 0-1.2-.8-1.7-1.2-.7-.6-.8-1.6-.2-2.3 2.6-4.2 1.9-8.6-1.9-11.6-1.8-1.4-3.7-2.8-5.7-4-1.9-1.2-4-1.9-6.3-2.2-.9-.1-2-.4-2.8-1.1zM535.6 252.1c-2.3-.9-4.9-.6-7.5-.5-1.3.1-1.7-.8-1-1.9.5-.7 1.1-1.4 1.7-2 .8-.9 1.7-1.2 2.5 0 .8 1 1.4.6 2.2-.1 1.3-1.3 1.8-1.3 2.9-.6 1.3 1 2 2.8 1.5 4-.4.9-1.1 1.2-2.3 1.1zM538.2 272.3c0 .4-.1.7-.2 1.1 0 .4-.3.8-.7.9-.4.1-.8-.1-1-.5-1-1.5-1.1-3.4-.5-5 .1-.4.5-.7.9-.7.5 0 .7.3.9.7.3 1.1.5 2.3.6 3.5zM542.7 258.5c-1.8-.1-2.6-1.4-2-2.9.5-1.1 1-1.2 1.9-.4.4.3.7.6 1 1s1.3.7.9 1.5-1.1.8-1.8.8zM542.3 265.9c-1 0-1.8-.8-1.8-1.8-.1-.9.5-1.7 1.4-1.9.8-.1 1.7.8 1.8 1.9.2.9-.4 1.7-1.2 1.9-.1-.1-.1-.1-.2-.1zM555.8 275.6c0 .6-1 1.4-1.7 1.3-.3 0-.6-.3-.6-.6 0-.8.7-1.4 1.5-1.4h.1c.4-.1.7.3.7.7zM528.6 256.2c-.1 0-.1.1-.2.1s-.2-.2-.1-.3h.2c.1-.1.1.1.1.2z"/>
  <path fill="#FFF" d="M551.2 259.4c0 .1-.1.1-.1.2-.1 0-.2 0-.3-.1v-.1c0-.1 0-.1.1-.2.2-.1.3 0 .3.2z"/>
</svg>
